<svg width="58" height="64" viewBox="0 0 58 64" fill="none" xmlns="http://www.w3.org/2000/svg">
<path d="M57.6659 9.61999C56.7869 4.25444 44.2291 0 28.86 0C13.4908 0 0.93314 4.25444 0.0541125 9.61999H0V10.2212V24.05V24.6512V25.2525V38.48V39.0812V39.6825V54.1124H0.0541125C0.93314 59.4768 13.492 63.7324 28.86 63.7324C44.2279 63.7324 56.7869 59.4768 57.6659 54.1124H57.72V39.6825V39.0812V38.48V25.2525V24.6512V24.05V10.2212V9.61999H57.6659Z" fill="#424A60"/>
<path d="M28.86 49.302C12.9209 49.302 0 44.7253 0 39.0808V54.112H0.0541125C0.93314 59.4764 13.492 63.732 28.86 63.732C44.2279 63.732 56.7869 59.4764 57.6659 54.112H57.72V39.0808C57.72 44.7253 44.7991 49.302 28.86 49.302Z" fill="#2563EB" fill-opacity="0.6"/>
<path d="M0 38.4805V39.0817C0 38.8797 0.021645 38.6801 0.0541125 38.4805H0Z" fill="#424A60"/>
<path d="M57.6657 38.4805C57.6982 38.6801 57.7198 38.8797 57.7198 39.0817V38.4805H57.6657Z" fill="#424A60"/>
<path d="M28.86 34.8721C12.9209 34.8721 0 30.2953 0 24.6508V39.682H0.0541125C0.93314 45.0464 13.492 49.302 28.86 49.302C44.2279 49.302 56.7869 45.0464 57.6659 39.682H57.72V24.6508C57.72 30.2953 44.7991 34.8721 28.86 34.8721Z" fill="#2563EB"/>
<path d="M0 24.0505V24.6517C0 24.4497 0.021645 24.2501 0.0541125 24.0505H0Z" fill="#7FABDA"/>
<path d="M57.6657 24.0505C57.6982 24.2501 57.7198 24.4497 57.7198 24.6517V24.0505H57.6657Z" fill="#7FABDA"/>
<g filter="url(#filter0_i_14_113)">
<path d="M28.86 20.4425C44.7989 20.4425 57.72 15.8663 57.72 10.2212C57.72 4.57621 44.7989 0 28.86 0C12.9211 0 0 4.57621 0 10.2212C0 15.8663 12.9211 20.4425 28.86 20.4425Z" fill="#DBEAFE"/>
</g>
<path d="M28.86 20.4421C12.9209 20.4421 0 15.8654 0 10.2208V25.2521H0.0541125C0.93314 30.6164 13.492 34.872 28.86 34.872C44.2279 34.872 56.7869 30.6164 57.6659 25.2521H57.72V10.2208C57.72 15.8654 44.7991 20.4421 28.86 20.4421Z" fill="#93C5FD"/>
<path d="M0 9.62048V10.2217C0 10.0197 0.021645 9.8201 0.0541125 9.62048H0Z" fill="#93C5FD"/>
<path d="M57.6657 9.62048C57.6982 9.8201 57.7198 10.0197 57.7198 10.2217V9.62048H57.6657Z" fill="#93C5FD"/>
<defs>
<filter id="filter0_i_14_113" x="0" y="0" width="57.72" height="24.4425" filterUnits="userSpaceOnUse" color-interpolation-filters="sRGB">
<feFlood flood-opacity="0" result="BackgroundImageFix"/>
<feBlend mode="normal" in="SourceGraphic" in2="BackgroundImageFix" result="shape"/>
<feColorMatrix in="SourceAlpha" type="matrix" values="0 0 0 0 0 0 0 0 0 0 0 0 0 0 0 0 0 0 127 0" result="hardAlpha"/>
<feOffset dy="4"/>
<feGaussianBlur stdDeviation="2"/>
<feComposite in2="hardAlpha" operator="arithmetic" k2="-1" k3="1"/>
<feColorMatrix type="matrix" values="0 0 0 0 0 0 0 0 0 0 0 0 0 0 0 0 0 0 0.1 0"/>
<feBlend mode="normal" in2="shape" result="effect1_innerShadow_14_113"/>
</filter>
</defs>
</svg>
