<svg width="34" height="41" viewBox="0 0 34 41" fill="none" xmlns="http://www.w3.org/2000/svg">
<path d="M22.625 2H5.75C4.75544 2 3.80161 2.39509 3.09835 3.09835C2.39509 3.80161 2 4.75544 2 5.75V35.75C2 36.7446 2.39509 37.6984 3.09835 38.4016C3.80161 39.1049 4.75544 39.5 5.75 39.5H28.25C29.2446 39.5 30.1984 39.1049 30.9016 38.4016C31.6049 37.6984 32 36.7446 32 35.75V11.375L22.625 2Z" stroke="#9CA3AF" stroke-width="2.5" stroke-linecap="round" stroke-linejoin="round"/>
<path d="M20.75 2V9.5C20.75 10.4946 21.1451 11.4484 21.8484 12.1517C22.5516 12.8549 23.5054 13.25 24.5 13.25H32" stroke="#9CA3AF" stroke-width="2.5" stroke-linecap="round" stroke-linejoin="round"/>
<path d="M13.25 15.125H9.5" stroke="#9CA3AF" stroke-width="2.5" stroke-linecap="round" stroke-linejoin="round"/>
<path d="M24.5 22.625H9.5" stroke="#9CA3AF" stroke-width="2.5" stroke-linecap="round" stroke-linejoin="round"/>
<path d="M24.5 30.125H9.5" stroke="#9CA3AF" stroke-width="2.5" stroke-linecap="round" stroke-linejoin="round"/>
</svg>
