<svg width="148" height="25" viewBox="0 0 148 25" fill="none" xmlns="http://www.w3.org/2000/svg">
<path d="M11.7376 16L14.8776 8.95H15.7876L18.9276 16H17.8276L16.9776 14.01L17.4576 14.32H13.1976L13.6776 14.01L12.8276 16H11.7376ZM15.3076 10.13L13.8076 13.69L13.5576 13.44H17.0976L16.8476 13.69L15.3376 10.13H15.3076ZM19.8667 16V11.08H20.8667V12.12H20.8167C20.97 11.7533 21.2033 11.4733 21.5167 11.28C21.8367 11.0867 22.1967 10.99 22.5967 10.99C22.9967 10.99 23.3267 11.0633 23.5867 11.21C23.8533 11.35 24.0533 11.57 24.1867 11.87C24.32 12.17 24.3867 12.5433 24.3867 12.99V16H23.3267V13.05C23.3267 12.7833 23.29 12.5633 23.2167 12.39C23.15 12.21 23.04 12.0767 22.8867 11.99C22.74 11.8967 22.5467 11.85 22.3067 11.85C22.0333 11.85 21.79 11.91 21.5767 12.03C21.37 12.15 21.21 12.3167 21.0967 12.53C20.9833 12.7367 20.9267 12.9767 20.9267 13.25V16H19.8667ZM20.8467 10.11L20.2667 10.07C20.3067 9.62333 20.4267 9.27333 20.6267 9.02C20.8267 8.76667 21.0867 8.64 21.4067 8.64C21.5667 8.64 21.71 8.67667 21.8367 8.75C21.97 8.82333 22.11 8.92 22.2567 9.04C22.39 9.14667 22.5 9.22667 22.5867 9.28C22.68 9.32667 22.7733 9.35 22.8667 9.35C23.04 9.35 23.1733 9.29 23.2667 9.17C23.36 9.04333 23.4267 8.85667 23.4667 8.61L24.0467 8.65C24.0133 9.10333 23.8967 9.45667 23.6967 9.71C23.4967 9.95667 23.2367 10.08 22.9167 10.08C22.7633 10.08 22.62 10.0467 22.4867 9.98C22.36 9.90667 22.2167 9.80667 22.0567 9.68C21.93 9.58 21.82 9.50333 21.7267 9.45C21.64 9.39667 21.55 9.37 21.4567 9.37C21.2833 9.37 21.1467 9.43333 21.0467 9.56C20.9533 9.68 20.8867 9.86333 20.8467 10.11ZM28.0818 16.09C27.5818 16.09 27.1452 15.9867 26.7718 15.78C26.4052 15.5667 26.1218 15.27 25.9218 14.89C25.7218 14.5033 25.6218 14.0533 25.6218 13.54C25.6218 13.02 25.7218 12.57 25.9218 12.19C26.1218 11.81 26.4052 11.5167 26.7718 11.31C27.1452 11.0967 27.5818 10.99 28.0818 10.99C28.5885 10.99 29.0252 11.0967 29.3918 11.31C29.7585 11.5167 30.0418 11.81 30.2418 12.19C30.4418 12.57 30.5418 13.02 30.5418 13.54C30.5418 14.0533 30.4418 14.5033 30.2418 14.89C30.0418 15.27 29.7585 15.5667 29.3918 15.78C29.0252 15.9867 28.5885 16.09 28.0818 16.09ZM28.0818 15.25C28.5152 15.25 28.8585 15.1 29.1118 14.8C29.3652 14.5 29.4918 14.0767 29.4918 13.53C29.4918 12.9833 29.3652 12.5633 29.1118 12.27C28.8585 11.9767 28.5152 11.83 28.0818 11.83C27.6485 11.83 27.3052 11.9767 27.0518 12.27C26.7985 12.5633 26.6718 12.9833 26.6718 13.53C26.6718 14.0767 26.7985 14.5 27.0518 14.8C27.3052 15.1 27.6485 15.25 28.0818 15.25ZM36.7644 16.09C36.2511 16.09 35.8077 15.9867 35.4344 15.78C35.0611 15.5667 34.7711 15.2667 34.5644 14.88C34.3644 14.4933 34.2644 14.04 34.2644 13.52C34.2644 13 34.3644 12.55 34.5644 12.17C34.7711 11.79 35.0611 11.5 35.4344 11.3C35.8144 11.0933 36.2577 10.99 36.7644 10.99C37.0911 10.99 37.4077 11.0433 37.7144 11.15C38.0211 11.2567 38.2744 11.4033 38.4744 11.59L38.1444 12.35C37.9577 12.1833 37.7477 12.06 37.5144 11.98C37.2877 11.8933 37.0677 11.85 36.8544 11.85C36.3744 11.85 36.0011 11.9967 35.7344 12.29C35.4677 12.5767 35.3344 12.99 35.3344 13.53C35.3344 14.07 35.4677 14.49 35.7344 14.79C36.0011 15.0833 36.3744 15.23 36.8544 15.23C37.0677 15.23 37.2877 15.19 37.5144 15.11C37.7411 15.0233 37.9444 14.8967 38.1244 14.73L38.4644 15.5C38.2711 15.68 38.0177 15.8233 37.7044 15.93C37.3977 16.0367 37.0844 16.09 36.7644 16.09ZM39.437 16V11.08H40.427V12.25H40.377C40.4903 11.87 40.687 11.5733 40.967 11.36C41.2537 11.1467 41.6203 11.0233 42.067 10.99L42.477 10.97L42.557 11.89L41.857 11.96C41.4237 12 41.0903 12.14 40.857 12.38C40.6237 12.62 40.507 12.9367 40.507 13.33V16H39.437ZM45.7918 16.09C45.2385 16.09 44.7618 15.99 44.3618 15.79C43.9618 15.5833 43.6552 15.29 43.4418 14.91C43.2285 14.5233 43.1218 14.0667 43.1218 13.54C43.1218 13.04 43.2218 12.6 43.4218 12.22C43.6285 11.8333 43.9152 11.5333 44.2818 11.32C44.6552 11.1 45.0852 10.99 45.5718 10.99C46.0452 10.99 46.4485 11.09 46.7818 11.29C47.1152 11.49 47.3718 11.7767 47.5518 12.15C47.7318 12.5167 47.8218 12.9567 47.8218 13.47V13.81H43.9418V13.14H47.1018L46.9318 13.31C46.9318 12.8033 46.8152 12.4167 46.5818 12.15C46.3552 11.8833 46.0285 11.75 45.6018 11.75C45.2952 11.75 45.0318 11.82 44.8118 11.96C44.5918 12.0933 44.4218 12.2867 44.3018 12.54C44.1818 12.7867 44.1218 13.0833 44.1218 13.43V13.52C44.1218 13.9067 44.1852 14.23 44.3118 14.49C44.4452 14.75 44.6385 14.9433 44.8918 15.07C45.1452 15.1967 45.4518 15.26 45.8118 15.26C46.0852 15.26 46.3585 15.2233 46.6318 15.15C46.9118 15.07 47.1685 14.9333 47.4018 14.74L47.7318 15.47C47.4852 15.67 47.1852 15.8233 46.8318 15.93C46.4852 16.0367 46.1385 16.09 45.7918 16.09ZM50.6861 16.09C50.3395 16.09 50.0261 16.0233 49.7461 15.89C49.4661 15.7567 49.2461 15.5767 49.0861 15.35C48.9328 15.1167 48.8561 14.8567 48.8561 14.57C48.8561 14.2033 48.9528 13.9133 49.1461 13.7C49.3461 13.4867 49.6628 13.3333 50.0961 13.24C50.5295 13.14 51.1028 13.09 51.8161 13.09H52.3961V13.75H51.8461C51.4861 13.75 51.1828 13.7633 50.9361 13.79C50.6895 13.81 50.4895 13.85 50.3361 13.91C50.1828 13.97 50.0695 14.05 49.9961 14.15C49.9295 14.2433 49.8961 14.3633 49.8961 14.51C49.8961 14.7633 49.9861 14.9633 50.1661 15.11C50.3528 15.25 50.5961 15.32 50.8961 15.32C51.1561 15.32 51.3861 15.2633 51.5861 15.15C51.7861 15.03 51.9461 14.87 52.0661 14.67C52.1861 14.4633 52.2461 14.2333 52.2461 13.98V12.85C52.2461 12.4767 52.1528 12.21 51.9661 12.05C51.7861 11.89 51.5028 11.81 51.1161 11.81C50.8295 11.81 50.5428 11.85 50.2561 11.93C49.9761 12.01 49.6828 12.14 49.3761 12.32L49.0561 11.58C49.2495 11.4533 49.4628 11.3467 49.6961 11.26C49.9361 11.1733 50.1828 11.1067 50.4361 11.06C50.6961 11.0133 50.9495 10.99 51.1961 10.99C51.6428 10.99 52.0195 11.06 52.3261 11.2C52.6328 11.34 52.8661 11.5533 53.0261 11.84C53.1861 12.1267 53.2661 12.5 53.2661 12.96V16H52.3161V14.93H52.3561C52.2828 15.1567 52.1695 15.36 52.0161 15.54C51.8628 15.7133 51.6728 15.85 51.4461 15.95C51.2261 16.0433 50.9728 16.09 50.6861 16.09ZM57.0086 16.09C56.4952 16.09 56.0519 15.9867 55.6786 15.78C55.3052 15.5667 55.0152 15.2667 54.8086 14.88C54.6086 14.4933 54.5086 14.04 54.5086 13.52C54.5086 13 54.6086 12.55 54.8086 12.17C55.0152 11.79 55.3052 11.5 55.6786 11.3C56.0586 11.0933 56.5019 10.99 57.0086 10.99C57.3352 10.99 57.6519 11.0433 57.9586 11.15C58.2652 11.2567 58.5186 11.4033 58.7186 11.59L58.3886 12.35C58.2019 12.1833 57.9919 12.06 57.7586 11.98C57.5319 11.8933 57.3119 11.85 57.0986 11.85C56.6186 11.85 56.2452 11.9967 55.9786 12.29C55.7119 12.5767 55.5786 12.99 55.5786 13.53C55.5786 14.07 55.7119 14.49 55.9786 14.79C56.2452 15.0833 56.6186 15.23 57.0986 15.23C57.3119 15.23 57.5319 15.19 57.7586 15.11C57.9852 15.0233 58.1886 14.8967 58.3686 14.73L58.7086 15.5C58.5152 15.68 58.2619 15.8233 57.9486 15.93C57.6419 16.0367 57.3286 16.09 57.0086 16.09ZM59.5911 9.96V8.86H60.8211V9.96H59.5911ZM59.6811 16V11.08H60.7411V16H59.6811ZM64.4588 16.09C63.9588 16.09 63.5221 15.9867 63.1488 15.78C62.7821 15.5667 62.4988 15.27 62.2988 14.89C62.0988 14.5033 61.9988 14.0533 61.9988 13.54C61.9988 13.02 62.0988 12.57 62.2988 12.19C62.4988 11.81 62.7821 11.5167 63.1488 11.31C63.5221 11.0967 63.9588 10.99 64.4588 10.99C64.9655 10.99 65.4021 11.0967 65.7688 11.31C66.1355 11.5167 66.4188 11.81 66.6188 12.19C66.8188 12.57 66.9188 13.02 66.9188 13.54C66.9188 14.0533 66.8188 14.5033 66.6188 14.89C66.4188 15.27 66.1355 15.5667 65.7688 15.78C65.4021 15.9867 64.9655 16.09 64.4588 16.09ZM64.4588 15.25C64.8921 15.25 65.2355 15.1 65.4888 14.8C65.7421 14.5 65.8688 14.0767 65.8688 13.53C65.8688 12.9833 65.7421 12.5633 65.4888 12.27C65.2355 11.9767 64.8921 11.83 64.4588 11.83C64.0255 11.83 63.6821 11.9767 63.4288 12.27C63.1755 12.5633 63.0488 12.9833 63.0488 13.53C63.0488 14.0767 63.1755 14.5 63.4288 14.8C63.6821 15.1 64.0255 15.25 64.4588 15.25ZM64.0588 10.44L65.0888 8.42H66.2088L64.8288 10.44H64.0588ZM68.1772 16V11.08H69.1772V12.12H69.1272C69.2806 11.7533 69.5139 11.4733 69.8272 11.28C70.1472 11.0867 70.5072 10.99 70.9072 10.99C71.3072 10.99 71.6372 11.0633 71.8972 11.21C72.1639 11.35 72.3639 11.57 72.4972 11.87C72.6306 12.17 72.6972 12.5433 72.6972 12.99V16H71.6372V13.05C71.6372 12.7833 71.6006 12.5633 71.5272 12.39C71.4606 12.21 71.3506 12.0767 71.1972 11.99C71.0506 11.8967 70.8572 11.85 70.6172 11.85C70.3439 11.85 70.1006 11.91 69.8872 12.03C69.6806 12.15 69.5206 12.3167 69.4072 12.53C69.2939 12.7367 69.2372 12.9767 69.2372 13.25V16H68.1772Z" fill="white"/>
<rect x="0.75" y="0.75" width="83.5" height="23.5" rx="11.75" stroke="#D9D9D9" stroke-width="1.5"/>
<path d="M98.7525 18V17.008L102.609 12.848C102.971 12.4533 103.265 12.0853 103.489 11.744C103.713 11.392 103.878 11.0507 103.985 10.72C104.091 10.3893 104.145 10.0533 104.145 9.712C104.145 9.072 103.947 8.58667 103.553 8.256C103.169 7.91467 102.603 7.744 101.857 7.744C101.281 7.744 100.742 7.85067 100.241 8.064C99.7498 8.26667 99.2805 8.58667 98.8325 9.024L98.3365 8C98.7525 7.57333 99.2805 7.232 99.9205 6.976C100.571 6.70933 101.254 6.576 101.969 6.576C102.726 6.576 103.366 6.69333 103.889 6.928C104.411 7.16267 104.806 7.50933 105.073 7.968C105.339 8.416 105.473 8.96533 105.473 9.616C105.473 9.95733 105.43 10.2933 105.345 10.624C105.27 10.944 105.147 11.2693 104.977 11.6C104.817 11.92 104.609 12.2507 104.353 12.592C104.107 12.9333 103.809 13.2853 103.457 13.648L100.065 17.248V16.88H105.937V18H98.7525ZM111.706 18.144C110.853 18.144 110.128 17.9253 109.53 17.488C108.944 17.04 108.501 16.384 108.202 15.52C107.904 14.656 107.754 13.6 107.754 12.352C107.754 11.0933 107.904 10.0373 108.202 9.184C108.501 8.32 108.944 7.66933 109.53 7.232C110.128 6.79467 110.853 6.576 111.706 6.576C112.57 6.576 113.296 6.79467 113.882 7.232C114.469 7.66933 114.912 8.31467 115.21 9.168C115.509 10.0213 115.658 11.0773 115.658 12.336C115.658 13.5947 115.509 14.656 115.21 15.52C114.912 16.384 114.469 17.04 113.882 17.488C113.296 17.9253 112.57 18.144 111.706 18.144ZM111.706 17.008C112.602 17.008 113.264 16.6293 113.69 15.872C114.128 15.1147 114.346 13.936 114.346 12.336C114.346 10.736 114.133 9.568 113.706 8.832C113.28 8.08533 112.613 7.712 111.706 7.712C110.821 7.712 110.16 8.08533 109.722 8.832C109.285 9.57867 109.066 10.7467 109.066 12.336C109.066 13.936 109.28 15.1147 109.706 15.872C110.144 16.6293 110.81 17.008 111.706 17.008ZM117.94 18V17.008L121.796 12.848C122.159 12.4533 122.452 12.0853 122.676 11.744C122.9 11.392 123.065 11.0507 123.172 10.72C123.279 10.3893 123.332 10.0533 123.332 9.712C123.332 9.072 123.135 8.58667 122.74 8.256C122.356 7.91467 121.791 7.744 121.044 7.744C120.468 7.744 119.929 7.85067 119.428 8.064C118.937 8.26667 118.468 8.58667 118.02 9.024L117.524 8C117.94 7.57333 118.468 7.232 119.108 6.976C119.759 6.70933 120.441 6.576 121.156 6.576C121.913 6.576 122.553 6.69333 123.076 6.928C123.599 7.16267 123.993 7.50933 124.26 7.968C124.527 8.416 124.66 8.96533 124.66 9.616C124.66 9.95733 124.617 10.2933 124.532 10.624C124.457 10.944 124.335 11.2693 124.164 11.6C124.004 11.92 123.796 12.2507 123.54 12.592C123.295 12.9333 122.996 13.2853 122.644 13.648L119.252 17.248V16.88H125.124V18H117.94ZM132.126 18V15.584H126.926V14.592L132.35 6.72H133.454V14.464H135.134V15.584H133.454V18H132.126ZM132.126 14.464V8.304H132.51L128.046 14.816V14.464H132.126Z" fill="white"/>
<rect x="12" width="136" height="1.5" rx="0.75" fill="#D9D9D9"/>
</svg>
