<svg width="270" height="25" viewBox="0 0 270 25" fill="none" xmlns="http://www.w3.org/2000/svg">
<path d="M14.4012 16V8.95H15.4612V15.08H18.9512V16H14.4012ZM22.1053 16.09C21.6053 16.09 21.1686 15.9867 20.7953 15.78C20.4286 15.5667 20.1453 15.27 19.9453 14.89C19.7453 14.5033 19.6453 14.0533 19.6453 13.54C19.6453 13.02 19.7453 12.57 19.9453 12.19C20.1453 11.81 20.4286 11.5167 20.7953 11.31C21.1686 11.0967 21.6053 10.99 22.1053 10.99C22.6119 10.99 23.0486 11.0967 23.4153 11.31C23.7819 11.5167 24.0653 11.81 24.2653 12.19C24.4653 12.57 24.5653 13.02 24.5653 13.54C24.5653 14.0533 24.4653 14.5033 24.2653 14.89C24.0653 15.27 23.7819 15.5667 23.4153 15.78C23.0486 15.9867 22.6119 16.09 22.1053 16.09ZM22.1053 15.25C22.5386 15.25 22.8819 15.1 23.1353 14.8C23.3886 14.5 23.5153 14.0767 23.5153 13.53C23.5153 12.9833 23.3886 12.5633 23.1353 12.27C22.8819 11.9767 22.5386 11.83 22.1053 11.83C21.6719 11.83 21.3286 11.9767 21.0753 12.27C20.8219 12.5633 20.6953 12.9833 20.6953 13.53C20.6953 14.0767 20.8219 14.5 21.0753 14.8C21.3286 15.1 21.6719 15.25 22.1053 15.25ZM28.0437 16.09C27.5304 16.09 27.087 15.9867 26.7137 15.78C26.3404 15.5667 26.0504 15.2667 25.8437 14.88C25.6437 14.4933 25.5437 14.04 25.5437 13.52C25.5437 13 25.6437 12.55 25.8437 12.17C26.0504 11.79 26.3404 11.5 26.7137 11.3C27.0937 11.0933 27.537 10.99 28.0437 10.99C28.3704 10.99 28.687 11.0433 28.9937 11.15C29.3004 11.2567 29.5537 11.4033 29.7537 11.59L29.4237 12.35C29.237 12.1833 29.027 12.06 28.7937 11.98C28.567 11.8933 28.347 11.85 28.1337 11.85C27.6537 11.85 27.2804 11.9967 27.0137 12.29C26.747 12.5767 26.6137 12.99 26.6137 13.53C26.6137 14.07 26.747 14.49 27.0137 14.79C27.2804 15.0833 27.6537 15.23 28.1337 15.23C28.347 15.23 28.567 15.19 28.7937 15.11C29.0204 15.0233 29.2237 14.8967 29.4037 14.73L29.7437 15.5C29.5504 15.68 29.297 15.8233 28.9837 15.93C28.677 16.0367 28.3637 16.09 28.0437 16.09ZM32.3072 16.09C31.9606 16.09 31.6472 16.0233 31.3672 15.89C31.0872 15.7567 30.8672 15.5767 30.7072 15.35C30.5539 15.1167 30.4772 14.8567 30.4772 14.57C30.4772 14.2033 30.5739 13.9133 30.7672 13.7C30.9672 13.4867 31.2839 13.3333 31.7172 13.24C32.1506 13.14 32.7239 13.09 33.4372 13.09H34.0172V13.75H33.4672C33.1072 13.75 32.8039 13.7633 32.5572 13.79C32.3106 13.81 32.1106 13.85 31.9572 13.91C31.8039 13.97 31.6906 14.05 31.6172 14.15C31.5506 14.2433 31.5172 14.3633 31.5172 14.51C31.5172 14.7633 31.6072 14.9633 31.7872 15.11C31.9739 15.25 32.2172 15.32 32.5172 15.32C32.7772 15.32 33.0072 15.2633 33.2072 15.15C33.4072 15.03 33.5672 14.87 33.6872 14.67C33.8072 14.4633 33.8672 14.2333 33.8672 13.98V12.85C33.8672 12.4767 33.7739 12.21 33.5872 12.05C33.4072 11.89 33.1239 11.81 32.7372 11.81C32.4506 11.81 32.1639 11.85 31.8772 11.93C31.5972 12.01 31.3039 12.14 30.9972 12.32L30.6772 11.58C30.8706 11.4533 31.0839 11.3467 31.3172 11.26C31.5572 11.1733 31.8039 11.1067 32.0572 11.06C32.3172 11.0133 32.5706 10.99 32.8172 10.99C33.2639 10.99 33.6406 11.06 33.9472 11.2C34.2539 11.34 34.4872 11.5533 34.6472 11.84C34.8072 12.1267 34.8872 12.5 34.8872 12.96V16H33.9372V14.93H33.9772C33.9039 15.1567 33.7906 15.36 33.6372 15.54C33.4839 15.7133 33.2939 15.85 33.0672 15.95C32.8472 16.0433 32.5939 16.09 32.3072 16.09ZM38.0096 16.09C37.483 16.09 37.083 15.9433 36.8096 15.65C36.543 15.35 36.4096 14.9233 36.4096 14.37V8.95H37.4696V14.29C37.4696 14.49 37.4963 14.6633 37.5496 14.81C37.6096 14.95 37.6963 15.0567 37.8096 15.13C37.923 15.1967 38.063 15.23 38.2296 15.23C38.3163 15.23 38.3996 15.2267 38.4796 15.22C38.5596 15.2067 38.643 15.19 38.7296 15.17L38.7396 15.99C38.6196 16.0233 38.4996 16.0467 38.3796 16.06C38.2663 16.08 38.143 16.09 38.0096 16.09ZM39.5228 9.96V8.86H40.7528V9.96H39.5228ZM39.6128 16V11.08H40.6728V16H39.6128ZM41.9904 16V15.31L44.9404 11.62L44.9604 11.91H42.0204V11.08H45.9304V11.76L42.9504 15.48L42.9404 15.17H46.0404V16H41.9904ZM48.7525 16.09C48.4059 16.09 48.0925 16.0233 47.8125 15.89C47.5325 15.7567 47.3125 15.5767 47.1525 15.35C46.9992 15.1167 46.9225 14.8567 46.9225 14.57C46.9225 14.2033 47.0192 13.9133 47.2125 13.7C47.4125 13.4867 47.7292 13.3333 48.1625 13.24C48.5959 13.14 49.1692 13.09 49.8825 13.09H50.4625V13.75H49.9125C49.5525 13.75 49.2492 13.7633 49.0025 13.79C48.7559 13.81 48.5559 13.85 48.4025 13.91C48.2492 13.97 48.1359 14.05 48.0625 14.15C47.9959 14.2433 47.9625 14.3633 47.9625 14.51C47.9625 14.7633 48.0525 14.9633 48.2325 15.11C48.4192 15.25 48.6625 15.32 48.9625 15.32C49.2225 15.32 49.4525 15.2633 49.6525 15.15C49.8525 15.03 50.0125 14.87 50.1325 14.67C50.2525 14.4633 50.3125 14.2333 50.3125 13.98V12.85C50.3125 12.4767 50.2192 12.21 50.0325 12.05C49.8525 11.89 49.5692 11.81 49.1825 11.81C48.8959 11.81 48.6092 11.85 48.3225 11.93C48.0425 12.01 47.7492 12.14 47.4425 12.32L47.1225 11.58C47.3159 11.4533 47.5292 11.3467 47.7625 11.26C48.0025 11.1733 48.2492 11.1067 48.5025 11.06C48.7625 11.0133 49.0159 10.99 49.2625 10.99C49.7092 10.99 50.0859 11.06 50.3925 11.2C50.6992 11.34 50.9325 11.5533 51.0925 11.84C51.2525 12.1267 51.3325 12.5 51.3325 12.96V16H50.3825V14.93H50.4225C50.3492 15.1567 50.2359 15.36 50.0825 15.54C49.9292 15.7133 49.7392 15.85 49.5125 15.95C49.2925 16.0433 49.0392 16.09 48.7525 16.09ZM55.075 16.09C54.5616 16.09 54.1183 15.9867 53.745 15.78C53.3716 15.5667 53.0816 15.2667 52.875 14.88C52.675 14.4933 52.575 14.04 52.575 13.52C52.575 13 52.675 12.55 52.875 12.17C53.0816 11.79 53.3716 11.5 53.745 11.3C54.125 11.0933 54.5683 10.99 55.075 10.99C55.4016 10.99 55.7183 11.0433 56.025 11.15C56.3316 11.2567 56.585 11.4033 56.785 11.59L56.455 12.35C56.2683 12.1833 56.0583 12.06 55.825 11.98C55.5983 11.8933 55.3783 11.85 55.165 11.85C54.685 11.85 54.3116 11.9967 54.045 12.29C53.7783 12.5767 53.645 12.99 53.645 13.53C53.645 14.07 53.7783 14.49 54.045 14.79C54.3116 15.0833 54.685 15.23 55.165 15.23C55.3783 15.23 55.5983 15.19 55.825 15.11C56.0516 15.0233 56.255 14.8967 56.435 14.73L56.775 15.5C56.5816 15.68 56.3283 15.8233 56.015 15.93C55.7083 16.0367 55.395 16.09 55.075 16.09ZM57.6575 9.96V8.86H58.8875V9.96H57.6575ZM57.7475 16V11.08H58.8075V16H57.7475ZM62.5252 16.09C62.0252 16.09 61.5885 15.9867 61.2152 15.78C60.8485 15.5667 60.5652 15.27 60.3652 14.89C60.1652 14.5033 60.0652 14.0533 60.0652 13.54C60.0652 13.02 60.1652 12.57 60.3652 12.19C60.5652 11.81 60.8485 11.5167 61.2152 11.31C61.5885 11.0967 62.0252 10.99 62.5252 10.99C63.0319 10.99 63.4685 11.0967 63.8352 11.31C64.2019 11.5167 64.4852 11.81 64.6852 12.19C64.8852 12.57 64.9852 13.02 64.9852 13.54C64.9852 14.0533 64.8852 14.5033 64.6852 14.89C64.4852 15.27 64.2019 15.5667 63.8352 15.78C63.4685 15.9867 63.0319 16.09 62.5252 16.09ZM62.5252 15.25C62.9585 15.25 63.3019 15.1 63.5552 14.8C63.8085 14.5 63.9352 14.0767 63.9352 13.53C63.9352 12.9833 63.8085 12.5633 63.5552 12.27C63.3019 11.9767 62.9585 11.83 62.5252 11.83C62.0919 11.83 61.7485 11.9767 61.4952 12.27C61.2419 12.5633 61.1152 12.9833 61.1152 13.53C61.1152 14.0767 61.2419 14.5 61.4952 14.8C61.7485 15.1 62.0919 15.25 62.5252 15.25ZM62.1252 10.44L63.1552 8.42H64.2752L62.8952 10.44H62.1252ZM66.2436 16V11.08H67.2436V12.12H67.1936C67.347 11.7533 67.5803 11.4733 67.8936 11.28C68.2136 11.0867 68.5736 10.99 68.9736 10.99C69.3736 10.99 69.7036 11.0633 69.9636 11.21C70.2303 11.35 70.4303 11.57 70.5636 11.87C70.697 12.17 70.7636 12.5433 70.7636 12.99V16H69.7036V13.05C69.7036 12.7833 69.667 12.5633 69.5936 12.39C69.527 12.21 69.417 12.0767 69.2636 11.99C69.117 11.8967 68.9236 11.85 68.6836 11.85C68.4103 11.85 68.167 11.91 67.9536 12.03C67.747 12.15 67.587 12.3167 67.4736 12.53C67.3603 12.7367 67.3036 12.9767 67.3036 13.25V16H66.2436Z" fill="white"/>
<rect x="0.75" y="0.75" width="83.5" height="23.5" rx="11.75" stroke="#D9D9D9" stroke-width="1.5"/>
<path d="M92.5561 18V6.72H99.5321V7.824H93.8681V11.76H99.2121V12.864H93.8681V18H92.5561ZM103.53 18.144C102.74 18.144 102.143 17.9093 101.738 17.44C101.343 16.9707 101.146 16.2987 101.146 15.424V6.72H102.442V15.328C102.442 15.7013 102.49 16.016 102.586 16.272C102.692 16.528 102.847 16.72 103.05 16.848C103.252 16.976 103.503 17.04 103.802 17.04C103.93 17.04 104.052 17.0347 104.17 17.024C104.298 17.0027 104.415 16.976 104.522 16.944L104.49 18.032C104.319 18.064 104.154 18.0907 103.994 18.112C103.844 18.1333 103.69 18.144 103.53 18.144ZM109.034 18.144C108.277 18.144 107.621 17.9787 107.066 17.648C106.511 17.3173 106.079 16.8533 105.77 16.256C105.471 15.648 105.322 14.9333 105.322 14.112C105.322 13.2907 105.471 12.5813 105.77 11.984C106.079 11.376 106.511 10.9067 107.066 10.576C107.621 10.2453 108.277 10.08 109.034 10.08C109.791 10.08 110.447 10.2453 111.002 10.576C111.557 10.9067 111.983 11.376 112.282 11.984C112.591 12.5813 112.746 13.2907 112.746 14.112C112.746 14.9333 112.591 15.648 112.282 16.256C111.983 16.8533 111.557 17.3173 111.002 17.648C110.447 17.9787 109.791 18.144 109.034 18.144ZM109.034 17.104C109.77 17.104 110.351 16.848 110.778 16.336C111.215 15.8133 111.434 15.0667 111.434 14.096C111.434 13.136 111.215 12.4 110.778 11.888C110.351 11.376 109.77 11.12 109.034 11.12C108.309 11.12 107.727 11.376 107.29 11.888C106.853 12.4 106.634 13.136 106.634 14.096C106.634 15.0667 106.853 15.8133 107.29 16.336C107.727 16.848 108.309 17.104 109.034 17.104ZM114.693 18V10.224H115.957V12.064H115.797C115.978 11.4347 116.293 10.96 116.741 10.64C117.189 10.3093 117.781 10.1173 118.517 10.064L118.981 10.016L119.077 11.136L118.261 11.232C117.535 11.296 116.975 11.5307 116.581 11.936C116.197 12.3307 116.005 12.8747 116.005 13.568V18H114.693ZM120.267 8.288V6.832H121.867V8.288H120.267ZM120.427 18V10.224H121.723V18H120.427ZM127.106 18.144C126.412 18.144 125.804 17.9787 125.282 17.648C124.77 17.3173 124.37 16.8533 124.082 16.256C123.804 15.648 123.666 14.9333 123.666 14.112C123.666 13.28 123.804 12.5653 124.082 11.968C124.37 11.36 124.77 10.896 125.282 10.576C125.804 10.2453 126.412 10.08 127.106 10.08C127.81 10.08 128.412 10.256 128.914 10.608C129.415 10.96 129.751 11.4347 129.922 12.032H129.746V6.72H131.042V18H129.778V16.144H129.938C129.767 16.752 129.426 17.2373 128.914 17.6C128.412 17.9627 127.81 18.144 127.106 18.144ZM127.378 17.104C128.114 17.104 128.695 16.848 129.122 16.336C129.559 15.8133 129.778 15.072 129.778 14.112C129.778 13.1413 129.559 12.4 129.122 11.888C128.695 11.376 128.114 11.12 127.378 11.12C126.652 11.12 126.071 11.376 125.634 11.888C125.196 12.4 124.978 13.1413 124.978 14.112C124.978 15.072 125.196 15.8133 125.634 16.336C126.071 16.848 126.652 17.104 127.378 17.104ZM135.922 18.144C135.388 18.144 134.908 18.0427 134.482 17.84C134.066 17.6267 133.735 17.3387 133.49 16.976C133.244 16.6133 133.122 16.208 133.122 15.76C133.122 15.184 133.266 14.7307 133.554 14.4C133.852 14.0693 134.338 13.8347 135.01 13.696C135.692 13.5573 136.62 13.488 137.794 13.488H138.514V14.336H137.81C137.159 14.336 136.615 14.3573 136.178 14.4C135.74 14.4427 135.394 14.5173 135.138 14.624C134.882 14.7307 134.7 14.8693 134.594 15.04C134.487 15.2107 134.434 15.424 134.434 15.68C134.434 16.1173 134.583 16.4747 134.882 16.752C135.191 17.0293 135.607 17.168 136.13 17.168C136.556 17.168 136.93 17.0667 137.25 16.864C137.58 16.6613 137.836 16.384 138.018 16.032C138.21 15.68 138.306 15.2747 138.306 14.816V12.992C138.306 12.3307 138.172 11.856 137.906 11.568C137.639 11.2693 137.202 11.12 136.594 11.12C136.124 11.12 135.671 11.1893 135.234 11.328C134.796 11.456 134.348 11.6693 133.89 11.968L133.442 11.024C133.719 10.832 134.034 10.6667 134.386 10.528C134.738 10.3787 135.106 10.2667 135.49 10.192C135.874 10.1173 136.242 10.08 136.594 10.08C137.266 10.08 137.82 10.192 138.258 10.416C138.695 10.6293 139.02 10.96 139.234 11.408C139.447 11.8453 139.554 12.4107 139.554 13.104V18H138.338V16.192H138.482C138.396 16.5973 138.231 16.944 137.986 17.232C137.751 17.52 137.458 17.744 137.106 17.904C136.754 18.064 136.359 18.144 135.922 18.144ZM145.894 18.144C145.19 18.144 144.582 17.9627 144.07 17.6C143.569 17.2373 143.233 16.752 143.062 16.144H143.222V18H141.958V6.72H143.254V12.032H143.062C143.244 11.4347 143.585 10.96 144.086 10.608C144.588 10.256 145.19 10.08 145.894 10.08C146.598 10.08 147.206 10.2453 147.718 10.576C148.23 10.896 148.625 11.36 148.902 11.968C149.19 12.5653 149.334 13.28 149.334 14.112C149.334 14.9333 149.19 15.648 148.902 16.256C148.625 16.8533 148.225 17.3173 147.702 17.648C147.19 17.9787 146.588 18.144 145.894 18.144ZM145.622 17.104C146.358 17.104 146.94 16.848 147.366 16.336C147.804 15.8133 148.022 15.072 148.022 14.112C148.022 13.1413 147.804 12.4 147.366 11.888C146.94 11.376 146.358 11.12 145.622 11.12C144.897 11.12 144.316 11.376 143.878 11.888C143.441 12.4 143.222 13.1413 143.222 14.112C143.222 15.072 143.441 15.8133 143.878 16.336C144.316 16.848 144.897 17.104 145.622 17.104ZM153.67 18.144C152.881 18.144 152.284 17.9093 151.878 17.44C151.484 16.9707 151.286 16.2987 151.286 15.424V6.72H152.582V15.328C152.582 15.7013 152.63 16.016 152.726 16.272C152.833 16.528 152.988 16.72 153.19 16.848C153.393 16.976 153.644 17.04 153.942 17.04C154.07 17.04 154.193 17.0347 154.31 17.024C154.438 17.0027 154.556 16.976 154.662 16.944L154.63 18.032C154.46 18.064 154.294 18.0907 154.134 18.112C153.985 18.1333 153.83 18.144 153.67 18.144ZM158.469 18.144C157.935 18.144 157.455 18.0427 157.029 17.84C156.613 17.6267 156.282 17.3387 156.037 16.976C155.791 16.6133 155.669 16.208 155.669 15.76C155.669 15.184 155.813 14.7307 156.101 14.4C156.399 14.0693 156.885 13.8347 157.557 13.696C158.239 13.5573 159.167 13.488 160.341 13.488H161.061V14.336H160.357C159.706 14.336 159.162 14.3573 158.725 14.4C158.287 14.4427 157.941 14.5173 157.685 14.624C157.429 14.7307 157.247 14.8693 157.141 15.04C157.034 15.2107 156.981 15.424 156.981 15.68C156.981 16.1173 157.13 16.4747 157.429 16.752C157.738 17.0293 158.154 17.168 158.677 17.168C159.103 17.168 159.477 17.0667 159.797 16.864C160.127 16.6613 160.383 16.384 160.565 16.032C160.757 15.68 160.853 15.2747 160.853 14.816V12.992C160.853 12.3307 160.719 11.856 160.453 11.568C160.186 11.2693 159.749 11.12 159.141 11.12C158.671 11.12 158.218 11.1893 157.781 11.328C157.343 11.456 156.895 11.6693 156.437 11.968L155.989 11.024C156.266 10.832 156.581 10.6667 156.933 10.528C157.285 10.3787 157.653 10.2667 158.037 10.192C158.421 10.1173 158.789 10.08 159.141 10.08C159.813 10.08 160.367 10.192 160.805 10.416C161.242 10.6293 161.567 10.96 161.781 11.408C161.994 11.8453 162.101 12.4107 162.101 13.104V18H160.885V16.192H161.029C160.943 16.5973 160.778 16.944 160.533 17.232C160.298 17.52 160.005 17.744 159.653 17.904C159.301 18.064 158.906 18.144 158.469 18.144ZM164.505 18V10.224H165.769V11.952H165.593C165.817 11.3333 166.18 10.8693 166.681 10.56C167.193 10.24 167.78 10.08 168.441 10.08C169.06 10.08 169.572 10.192 169.977 10.416C170.393 10.6293 170.702 10.9653 170.905 11.424C171.108 11.8827 171.209 12.4587 171.209 13.152V18H169.913V13.232C169.913 12.752 169.849 12.3573 169.721 12.048C169.604 11.7387 169.412 11.5093 169.145 11.36C168.889 11.2107 168.553 11.136 168.137 11.136C167.668 11.136 167.257 11.2373 166.905 11.44C166.553 11.6427 166.281 11.9253 166.089 12.288C165.897 12.6507 165.801 13.0773 165.801 13.568V18H164.505ZM176.895 18.144C176.116 18.144 175.444 17.9733 174.879 17.632C174.313 17.2907 173.876 16.816 173.567 16.208C173.268 15.5893 173.119 14.8747 173.119 14.064C173.119 13.2427 173.268 12.5333 173.567 11.936C173.876 11.3387 174.313 10.88 174.879 10.56C175.444 10.24 176.116 10.08 176.895 10.08C177.375 10.08 177.849 10.1653 178.319 10.336C178.788 10.5067 179.177 10.7467 179.487 11.056L179.039 12C178.729 11.7013 178.388 11.4827 178.015 11.344C177.652 11.2053 177.305 11.136 176.975 11.136C176.164 11.136 175.54 11.392 175.103 11.904C174.665 12.4053 174.447 13.1307 174.447 14.08C174.447 15.008 174.665 15.744 175.103 16.288C175.54 16.8213 176.164 17.088 176.975 17.088C177.305 17.088 177.652 17.0187 178.015 16.88C178.388 16.7413 178.729 16.5173 179.039 16.208L179.487 17.152C179.177 17.4613 178.783 17.7067 178.303 17.888C177.833 18.0587 177.364 18.144 176.895 18.144ZM183.391 18.144C182.857 18.144 182.377 18.0427 181.951 17.84C181.535 17.6267 181.204 17.3387 180.959 16.976C180.713 16.6133 180.591 16.208 180.591 15.76C180.591 15.184 180.735 14.7307 181.023 14.4C181.321 14.0693 181.807 13.8347 182.479 13.696C183.161 13.5573 184.089 13.488 185.263 13.488H185.983V14.336H185.279C184.628 14.336 184.084 14.3573 183.647 14.4C183.209 14.4427 182.863 14.5173 182.607 14.624C182.351 14.7307 182.169 14.8693 182.063 15.04C181.956 15.2107 181.903 15.424 181.903 15.68C181.903 16.1173 182.052 16.4747 182.351 16.752C182.66 17.0293 183.076 17.168 183.599 17.168C184.025 17.168 184.399 17.0667 184.719 16.864C185.049 16.6613 185.305 16.384 185.487 16.032C185.679 15.68 185.775 15.2747 185.775 14.816V12.992C185.775 12.3307 185.641 11.856 185.375 11.568C185.108 11.2693 184.671 11.12 184.063 11.12C183.593 11.12 183.14 11.1893 182.703 11.328C182.265 11.456 181.817 11.6693 181.359 11.968L180.911 11.024C181.188 10.832 181.503 10.6667 181.855 10.528C182.207 10.3787 182.575 10.2667 182.959 10.192C183.343 10.1173 183.711 10.08 184.063 10.08C184.735 10.08 185.289 10.192 185.727 10.416C186.164 10.6293 186.489 10.96 186.703 11.408C186.916 11.8453 187.023 12.4107 187.023 13.104V18H185.807V16.192H185.951C185.865 16.5973 185.7 16.944 185.455 17.232C185.22 17.52 184.927 17.744 184.575 17.904C184.223 18.064 183.828 18.144 183.391 18.144ZM189.891 19.824L189.283 19.36C189.475 19.1573 189.619 18.9653 189.715 18.784C189.822 18.6133 189.891 18.4373 189.923 18.256C189.966 18.0853 189.987 17.9093 189.987 17.728L190.275 18H189.219V16.368H190.851V17.52C190.851 17.808 190.819 18.08 190.755 18.336C190.702 18.6027 190.606 18.8587 190.467 19.104C190.328 19.3493 190.136 19.5893 189.891 19.824ZM202.233 18.144C201.124 18.144 200.174 17.9093 199.385 17.44C198.596 16.9707 197.988 16.304 197.561 15.44C197.145 14.576 196.937 13.5467 196.937 12.352C196.937 11.1573 197.145 10.1333 197.561 9.28C197.988 8.416 198.596 7.74933 199.385 7.28C200.174 6.81067 201.124 6.576 202.233 6.576C203.012 6.576 203.732 6.69867 204.393 6.944C205.054 7.18933 205.609 7.54667 206.057 8.016L205.545 9.088C205.054 8.62933 204.542 8.29867 204.009 8.096C203.486 7.88267 202.905 7.776 202.265 7.776C200.996 7.776 200.025 8.176 199.353 8.976C198.681 9.776 198.345 10.9013 198.345 12.352C198.345 13.8027 198.681 14.9333 199.353 15.744C200.025 16.544 200.996 16.944 202.265 16.944C202.905 16.944 203.486 16.8427 204.009 16.64C204.542 16.4267 205.054 16.0907 205.545 15.632L206.057 16.704C205.609 17.1627 205.054 17.52 204.393 17.776C203.732 18.0213 203.012 18.144 202.233 18.144ZM210.612 18.144C209.855 18.144 209.199 17.9787 208.644 17.648C208.089 17.3173 207.657 16.8533 207.348 16.256C207.049 15.648 206.9 14.9333 206.9 14.112C206.9 13.2907 207.049 12.5813 207.348 11.984C207.657 11.376 208.089 10.9067 208.644 10.576C209.199 10.2453 209.855 10.08 210.612 10.08C211.369 10.08 212.025 10.2453 212.58 10.576C213.135 10.9067 213.561 11.376 213.86 11.984C214.169 12.5813 214.324 13.2907 214.324 14.112C214.324 14.9333 214.169 15.648 213.86 16.256C213.561 16.8533 213.135 17.3173 212.58 17.648C212.025 17.9787 211.369 18.144 210.612 18.144ZM210.612 17.104C211.348 17.104 211.929 16.848 212.356 16.336C212.793 15.8133 213.012 15.0667 213.012 14.096C213.012 13.136 212.793 12.4 212.356 11.888C211.929 11.376 211.348 11.12 210.612 11.12C209.887 11.12 209.305 11.376 208.868 11.888C208.431 12.4 208.212 13.136 208.212 14.096C208.212 15.0667 208.431 15.8133 208.868 16.336C209.305 16.848 209.887 17.104 210.612 17.104ZM218.655 18.144C217.865 18.144 217.268 17.9093 216.863 17.44C216.468 16.9707 216.271 16.2987 216.271 15.424V6.72H217.567V15.328C217.567 15.7013 217.615 16.016 217.711 16.272C217.817 16.528 217.972 16.72 218.175 16.848C218.377 16.976 218.628 17.04 218.927 17.04C219.055 17.04 219.177 17.0347 219.295 17.024C219.423 17.0027 219.54 16.976 219.647 16.944L219.615 18.032C219.444 18.064 219.279 18.0907 219.119 18.112C218.969 18.1333 218.815 18.144 218.655 18.144ZM224.159 18.144C223.402 18.144 222.746 17.9787 222.191 17.648C221.636 17.3173 221.204 16.8533 220.895 16.256C220.596 15.648 220.447 14.9333 220.447 14.112C220.447 13.2907 220.596 12.5813 220.895 11.984C221.204 11.376 221.636 10.9067 222.191 10.576C222.746 10.2453 223.402 10.08 224.159 10.08C224.916 10.08 225.572 10.2453 226.127 10.576C226.682 10.9067 227.108 11.376 227.407 11.984C227.716 12.5813 227.871 13.2907 227.871 14.112C227.871 14.9333 227.716 15.648 227.407 16.256C227.108 16.8533 226.682 17.3173 226.127 17.648C225.572 17.9787 224.916 18.144 224.159 18.144ZM224.159 17.104C224.895 17.104 225.476 16.848 225.903 16.336C226.34 15.8133 226.559 15.0667 226.559 14.096C226.559 13.136 226.34 12.4 225.903 11.888C225.476 11.376 224.895 11.12 224.159 11.12C223.434 11.12 222.852 11.376 222.415 11.888C221.978 12.4 221.759 13.136 221.759 14.096C221.759 15.0667 221.978 15.8133 222.415 16.336C222.852 16.848 223.434 17.104 224.159 17.104ZM229.85 18V10.224H231.114V11.952H230.938C231.066 11.5573 231.252 11.2213 231.498 10.944C231.754 10.656 232.052 10.4427 232.394 10.304C232.746 10.1547 233.13 10.08 233.546 10.08C234.207 10.08 234.74 10.24 235.146 10.56C235.562 10.8693 235.839 11.3547 235.978 12.016H235.738C235.93 11.4187 236.271 10.9493 236.762 10.608C237.263 10.256 237.844 10.08 238.506 10.08C239.092 10.08 239.572 10.192 239.946 10.416C240.33 10.64 240.618 10.9813 240.81 11.44C241.002 11.888 241.098 12.4587 241.098 13.152V18H239.802V13.216C239.802 12.5013 239.679 11.9787 239.434 11.648C239.188 11.3067 238.772 11.136 238.186 11.136C237.77 11.136 237.402 11.2373 237.082 11.44C236.772 11.6427 236.532 11.9307 236.362 12.304C236.202 12.6667 236.122 13.0987 236.122 13.6V18H234.826V13.216C234.826 12.5013 234.698 11.9787 234.442 11.648C234.196 11.3067 233.786 11.136 233.21 11.136C232.783 11.136 232.415 11.2373 232.106 11.44C231.796 11.6427 231.556 11.9307 231.386 12.304C231.226 12.6667 231.146 13.0987 231.146 13.6V18H229.85ZM247.457 18.144C246.753 18.144 246.145 17.9627 245.633 17.6C245.131 17.2373 244.795 16.752 244.625 16.144H244.785V18H243.521V6.72H244.817V12.032H244.625C244.806 11.4347 245.147 10.96 245.649 10.608C246.15 10.256 246.753 10.08 247.457 10.08C248.161 10.08 248.769 10.2453 249.281 10.576C249.793 10.896 250.187 11.36 250.465 11.968C250.753 12.5653 250.897 13.28 250.897 14.112C250.897 14.9333 250.753 15.648 250.465 16.256C250.187 16.8533 249.787 17.3173 249.265 17.648C248.753 17.9787 248.15 18.144 247.457 18.144ZM247.185 17.104C247.921 17.104 248.502 16.848 248.929 16.336C249.366 15.8133 249.585 15.072 249.585 14.112C249.585 13.1413 249.366 12.4 248.929 11.888C248.502 11.376 247.921 11.12 247.185 11.12C246.459 11.12 245.878 11.376 245.441 11.888C245.003 12.4 244.785 13.1413 244.785 14.112C244.785 15.072 245.003 15.8133 245.441 16.336C245.878 16.848 246.459 17.104 247.185 17.104ZM252.689 8.288V6.832H254.289V8.288H252.689ZM252.849 18V10.224H254.145V18H252.849ZM259.016 18.144C258.482 18.144 258.002 18.0427 257.576 17.84C257.16 17.6267 256.829 17.3387 256.584 16.976C256.338 16.6133 256.216 16.208 256.216 15.76C256.216 15.184 256.36 14.7307 256.648 14.4C256.946 14.0693 257.432 13.8347 258.104 13.696C258.786 13.5573 259.714 13.488 260.888 13.488H261.608V14.336H260.904C260.253 14.336 259.709 14.3573 259.272 14.4C258.834 14.4427 258.488 14.5173 258.232 14.624C257.976 14.7307 257.794 14.8693 257.688 15.04C257.581 15.2107 257.528 15.424 257.528 15.68C257.528 16.1173 257.677 16.4747 257.976 16.752C258.285 17.0293 258.701 17.168 259.224 17.168C259.65 17.168 260.024 17.0667 260.344 16.864C260.674 16.6613 260.93 16.384 261.112 16.032C261.304 15.68 261.4 15.2747 261.4 14.816V12.992C261.4 12.3307 261.266 11.856 261 11.568C260.733 11.2693 260.296 11.12 259.688 11.12C259.218 11.12 258.765 11.1893 258.328 11.328C257.89 11.456 257.442 11.6693 256.984 11.968L256.536 11.024C256.813 10.832 257.128 10.6667 257.48 10.528C257.832 10.3787 258.2 10.2667 258.584 10.192C258.968 10.1173 259.336 10.08 259.688 10.08C260.36 10.08 260.914 10.192 261.352 10.416C261.789 10.6293 262.114 10.96 262.328 11.408C262.541 11.8453 262.648 12.4107 262.648 13.104V18H261.432V16.192H261.576C261.49 16.5973 261.325 16.944 261.08 17.232C260.845 17.52 260.552 17.744 260.2 17.904C259.848 18.064 259.453 18.144 259.016 18.144Z" fill="white"/>
<rect x="16" width="254" height="1.5" rx="0.75" fill="#D9D9D9"/>
</svg>
