<svg width="65" height="65" viewBox="0 0 65 65" fill="none" xmlns="http://www.w3.org/2000/svg">
<path d="M50.3376 40.1313C50.9324 38.6229 53.0676 38.6229 53.6624 40.1313L56.2644 46.7288C56.446 47.1893 56.8107 47.554 57.2712 47.7356L63.8687 50.3376C65.3771 50.9324 65.3771 53.0676 63.8687 53.6624L57.2712 56.2644C56.8107 56.446 56.446 56.8107 56.2644 57.2712L53.6624 63.8687C53.0676 65.3771 50.9324 65.3771 50.3376 63.8687L47.7356 57.2712C47.554 56.8107 47.1893 56.446 46.7288 56.2644L40.1313 53.6624C38.6229 53.0676 38.6229 50.9324 40.1313 50.3376L46.7288 47.7356C47.1893 47.554 47.554 47.1893 47.7356 46.7288L50.3376 40.1313Z" fill="#2563EB" fill-opacity="0.85"/>
<path d="M23.4891 3.06991C25.1034 -1.02331 30.8964 -1.02331 32.5108 3.06995L37.5134 15.7546C38.0062 17.0043 38.9955 17.9935 40.2452 18.4864L52.9302 23.4891C57.0233 25.1034 57.0233 30.8964 52.9302 32.5108L40.2452 37.5134C38.9955 38.0062 38.0062 38.9955 37.5134 40.2452L32.5108 52.9302C30.8964 57.0233 25.1034 57.0233 23.4891 52.9302L18.4864 40.2452C17.9935 38.9955 17.0043 38.0062 15.7546 37.5134L3.06991 32.5108C-1.02331 30.8964 -1.02331 25.1034 3.06995 23.4891L15.7546 18.4864C17.0043 17.9935 17.9935 17.0043 18.4864 15.7546L23.4891 3.06991Z" fill="#2563EB"/>
</svg>
